# Blender 4.1.1
# www.blender.org
mtllib tie.mtl
o Tie
v -0.067500 -0.580874 0.000000
v -0.067500 -0.276708 0.000000
v -0.067500 -0.276708 -0.959717
v 0.067500 -0.580874 0.000000
v 0.067500 -0.276708 0.000000
v -0.067500 0.068819 -0.758346
v 0.067500 -0.276708 -0.959717
v -0.067500 -0.367312 -0.959717
v 0.067500 -0.367312 -0.959717
v 0.067500 -0.276708 -0.847200
v -0.067500 -0.068819 -0.847200
v -0.067500 -0.163350 -0.959717
v 0.067500 -0.163350 -0.959717
v 0.067500 -0.068819 -0.847200
v 0.067500 0.068819 -0.758346
v -0.067500 0.068819 -0.728606
v 0.067500 0.068819 -0.728606
v -0.067500 -0.068819 -0.728606
v 0.067500 -0.068819 -0.728606
v -0.067500 -0.367312 -0.602219
v -0.067500 -0.276708 -0.847200
v 0.067500 -0.367312 -0.602219
v -0.067500 -0.547064 -0.165644
v -0.067500 -0.276708 -0.149004
v 0.067500 -0.547064 -0.165644
v 0.067500 -0.276708 -0.149004
v 0.067500 -0.367312 -0.784878
v -0.067500 -0.367312 -0.784878
v -0.067500 0.068819 -0.869717
v -0.067500 -0.021181 -0.959717
v 0.067500 -0.021181 -0.959717
v 0.067500 0.068819 -0.869717
v -0.067500 -0.276708 0.959717
v -0.067500 0.068819 0.758346
v 0.067500 -0.276708 0.959717
v -0.067500 -0.367312 0.959717
v 0.067500 -0.367312 0.959717
v 0.067500 -0.276708 0.847200
v -0.067500 -0.068819 0.847200
v -0.067500 -0.163350 0.959717
v 0.067500 -0.163350 0.959717
v 0.067500 -0.068819 0.847200
v 0.067500 0.068819 0.758346
v -0.067500 0.068819 0.728606
v 0.067500 0.068819 0.728606
v -0.067500 -0.068819 0.728606
v 0.067500 -0.068819 0.728606
v -0.067500 -0.367312 0.602219
v -0.067500 -0.276708 0.847200
v 0.067500 -0.367312 0.602219
v -0.067500 -0.547064 0.165644
v -0.067500 -0.276708 0.149004
v 0.067500 -0.547064 0.165644
v 0.067500 -0.276708 0.149004
v 0.067500 -0.367312 0.784878
v -0.067500 -0.367312 0.784878
v -0.067500 0.068819 0.869717
v -0.067500 -0.021181 0.959717
v 0.067500 -0.021181 0.959717
v 0.067500 0.068819 0.869717
vn -0.0000 -0.0000 -1.0000
vn 1.0000 -0.0000 -0.0000
vn -0.0000 -0.9565 -0.2917
vn -0.0000 -1.0000 -0.0000
vn -0.0000 1.0000 -0.0000
vn -1.0000 -0.0000 -0.0000
vn -0.0000 -0.0000 1.0000
vn -0.0000 -0.9810 -0.1941
vn -0.0000 0.7071 -0.7071
vn -0.0000 -0.9565 0.2917
vn -0.0000 -0.9810 0.1941
vn -0.0000 0.7071 0.7071
vt 0.375000 0.250000
vt 0.625000 0.250000
vt 0.625000 0.500000
vt 0.375000 0.500000
vt 0.375000 0.644723
vt 0.625000 0.646176
vt 0.625000 0.750000
vt 0.375000 0.750000
vt 0.625000 0.520976
vt 0.125000 0.644723
vt 0.125000 0.750000
vt 0.875000 0.646176
vt 0.875000 0.750000
vt 0.625000 0.229024
vt 0.625000 0.237278
vt 0.375000 0.229024
vt 0.375000 0.219789
vt 0.875000 0.520976
vt 0.625000 0.512722
vt 0.875000 0.512722
vt 0.375000 0.105277
vt 0.625000 0.103824
vt 0.625000 0.207649
vt 0.375000 0.210555
vt 0.125000 0.530211
vt 0.375000 0.530211
vt 0.375000 0.539445
vt 0.125000 0.539445
vt 0.625000 0.542351
vt 0.375000 0.000000
vt 0.625000 0.000000
vt 0.875000 0.542351
vt 0.125000 0.520976
vt 0.375000 0.520976
s 1
usemtl Remap1_Edge_NoAO
f 8/1/1 3/2/1 7/3/1 9/4/1
f 25/5/2 26/6/2 5/7/2 4/8/2
f 10/9/2 7/3/2 13/3/2 14/9/2
f 23/10/3 25/5/3 4/8/4 1/11/4
f 26/6/5 24/12/5 2/13/5 5/7/5
f 12/2/6 11/14/6 6/14/6 29/15/6 30/2/6
f 8/16/6 28/17/6 21/14/6 3/2/6
f 3/2/6 21/14/6 11/14/6 12/2/6
f 7/3/1 3/2/1 12/2/1 13/3/1
f 21/18/7 10/9/7 14/9/7 11/18/7
f 14/9/2 13/3/2 31/3/2 32/19/2 15/9/2
f 11/18/4 14/9/4 19/9/4 18/18/4
f 32/19/5 29/20/5 6/18/5 15/9/5
f 18/18/7 19/9/7 17/9/7 16/18/7
f 14/9/2 15/9/2 17/9/2 19/9/2
f 15/9/5 6/18/5 16/18/5 17/9/5
f 6/14/6 11/14/6 18/14/6 16/14/6
f 23/21/6 24/22/6 21/23/6 20/24/6
f 28/25/4 27/26/4 22/27/8 20/28/8
f 10/29/2 22/27/2 27/26/2
f 1/30/6 2/31/6 24/22/6 23/21/6
f 10/29/5 21/32/5 24/12/5 26/6/5
f 20/28/8 22/27/8 25/5/3 23/10/3
f 22/27/2 10/29/2 26/6/2 25/5/2
f 8/33/4 9/34/4 27/26/4 28/25/4
f 20/24/6 21/14/6 28/17/6
f 10/29/2 27/26/2 9/4/2 7/3/2
f 29/2/9 32/3/9 31/3/9 30/2/9
f 13/3/1 12/2/1 30/2/1 31/3/1
f 36/1/7 37/4/7 35/3/7 33/2/7
f 53/5/2 4/8/2 5/7/2 54/6/2
f 38/9/2 42/9/2 41/3/2 35/3/2
f 51/10/10 1/11/4 4/8/4 53/5/10
f 54/6/5 5/7/5 2/13/5 52/12/5
f 40/2/6 58/2/6 57/15/6 34/14/6 39/14/6
f 36/16/6 33/2/6 49/14/6 56/17/6
f 33/2/6 40/2/6 39/14/6 49/14/6
f 35/3/7 41/3/7 40/2/7 33/2/7
f 49/18/1 39/18/1 42/9/1 38/9/1
f 42/9/2 43/9/2 60/19/2 59/3/2 41/3/2
f 39/18/4 46/18/4 47/9/4 42/9/4
f 60/19/5 43/9/5 34/18/5 57/20/5
f 46/18/1 44/18/1 45/9/1 47/9/1
f 42/9/2 47/9/2 45/9/2 43/9/2
f 43/9/5 45/9/5 44/18/5 34/18/5
f 34/14/6 44/14/6 46/14/6 39/14/6
f 51/21/6 48/24/6 49/23/6 52/22/6
f 56/25/4 48/28/11 50/27/11 55/26/4
f 38/29/2 55/26/2 50/27/2
f 1/30/6 51/21/6 52/22/6 2/31/6
f 38/29/5 54/6/5 52/12/5 49/32/5
f 48/28/11 51/10/10 53/5/10 50/27/11
f 50/27/2 53/5/2 54/6/2 38/29/2
f 36/33/4 56/25/4 55/26/4 37/34/4
f 48/24/6 56/17/6 49/14/6
f 38/29/2 35/3/2 37/4/2 55/26/2
f 57/2/12 58/2/12 59/3/12 60/3/12
f 41/3/7 59/3/7 58/2/7 40/2/7
